:SAMPLES-PER-SECOND 30
:FULLY-SPECIFIED
:DEGREES
1
root  34.82971792 36.54775845 -14.46889141 8.972507477 -4.931875706 3.093245029
lowerback  -8.361030579 -0.6808563471 -0.400318712
upperback  -3.808069944 -0.4545246363 -3.00583005
thorax  0.7268289924 -0.08314029872 -2.907860041
lowerneck  -7.699739933 -12.79969978 -9.778510094
upperneck  13.47239971 -17.40800095 9.902230263
head  7.115180016 -8.093429565 3.036560059
lclavicle  0 -4.497500157e-015 -2.743230041e-014
lhumerus  -48.19979858 29.25510025 64.59100342
lradius  0.006001632661 -6.507048965e-006 30.1916008
lwrist  4.824992743e-007 -3.790274832e-007 -28.09600067
lhand  -4.413167194e-031 -36.85710144 -10.38479996
lfingers  90 7.125020027 -90
lthumb  94.73460718 -25.22747468 100.9968456
rclavicle  0 -4.497500157e-015 -2.743230041e-014
rhumerus  -59.77410126 -43.31499863 -44.36949921
rradius  -5.16745672e-007 2.214343908e-008 34.46020126
rwrist  -2.867388866e-005 0.1128110886 -140.375
rhand  -3.535513218e-031 -2.854949951 -7.66711998
rfingers  -90 -7.125020027 -90
rthumb  -86.61206786 -7.981945253 -66.91035963
rfemur  -11.24487686 16.04904556 13.03686333
rtibia  -0.2879382372 -0.8011406064 18.82606316
rfoot  1.187427759 -21.48979187 -35.62533188
rtoes  4.138733712 19.58426543 -102.1819001
lfemur  -6.497136116 -15.94829941 -20.59396744
ltibia  3.69519639 -0.2423269451 12.44211102
lfoot  0.5164880753 -23.73229408 36.59980774
ltoes  -8.724062091 -18.06748907 -116.3255407
2
root  34.83249935 36.54833215 -14.4691197 8.982393265 -4.945404053 3.093245029
lowerback  -8.349074364 -0.6808563471 -0.4190964401
upperback  -3.81449008 -0.4545246363 -3.010699987
thorax  0.7139260173 -0.08314029872 -2.907860041
lowerneck  -7.678140163 -12.82269955 -9.778510094
upperneck  13.4691 -17.44000244 9.90060997
head  7.114099979 -8.109950066 3.036560059
lclavicle  0 -4.497500157e-015 -2.743230041e-014
lhumerus  -48.18989944 29.24410057 64.59049988
lradius  0.006001632661 -6.507048965e-006 30.15570068
lwrist  4.824992743e-007 -3.790274832e-007 -28.11930084
lhand  -4.413426916e-031 -36.86159897 -10.43980026
lfingers  90 7.125020027 -90
lthumb  94.74829025 -25.28130286 101.0065857
rclavicle  0 -4.497500157e-015 -2.743230041e-014
rhumerus  -59.64970398 -43.1554985 -44.54999542
rradius  -5.16745672e-007 2.214343908e-008 34.53300095
rwrist  -2.867388866e-005 0.1128110886 -140.4470062
rhand  -1.767945559e-031 -2.975209951 -7.610770226
rfingers  -90 -7.125020027 -90
rthumb  -86.61159503 -8.027599693 -67.02436996
rfemur  -11.25620747 16.01259041 13.01755238
rtibia  -0.2856478989 -0.8334665895 18.82156944
rfoot  1.193997741 -21.54693031 -35.57863998
rtoes  4.186268932 19.57453898 -102.3237484
lfemur  -6.479175568 -15.93706226 -20.61157799
ltibia  3.722083569 -0.2134577483 12.39938164
lfoot  0.549126029 -23.78158379 36.67351532
ltoes  -8.726770532 -18.0662148 -116.3342741
3
root  34.83494135 36.54884879 -14.46927889 8.989955902 -4.950859547 3.096163034
lowerback  -8.345459938 -0.6808563471 -0.4412921667
upperback  -3.81972003 -0.4545246363 -3.020440102
thorax  0.7065079808 -0.08314029872 -2.907860041
lowerneck  -7.641540051 -12.84860039 -9.777420044
upperneck  13.44260025 -17.47879982 9.915180206
head  7.104499817 -8.129199982 3.038609982
lclavicle  0 -4.497500157e-015 -2.743230041e-014
lhumerus  -48.21580124 29.27370071 64.55269623
lradius  0.006001632661 -6.507048965e-006 30.15110016
lwrist  4.824992743e-007 -3.790274832e-007 -28.19219971
lhand  -4.412260932e-031 -36.84140015 -10.50790024
lfingers  90 7.125020027 -90
lthumb  94.7532762 -25.34888405 100.9911416
rclavicle  0 -4.497500157e-015 -2.743230041e-014
rhumerus  -59.47399902 -42.95489883 -44.8102951
rradius  -5.16745672e-007 2.214343908e-008 34.63150024
rwrist  -2.867388866e-005 0.1128110886 -140.5599976
rhand  -1.767802125e-031 -2.884380102 -7.58355999
rfingers  -90 -7.125020027 -90
rthumb  -86.58434033 -8.057315508 -66.93446639
rfemur  -11.29397583 16.02561569 13.02038288
rtibia  -0.2971431315 -0.7887106538 18.86984634
rfoot  1.200142741 -21.45420647 -35.54196167
rtoes  4.133481781 19.5853329 -102.1662321
lfemur  -6.438854694 -15.96851349 -20.63900375
ltibia  3.754574537 -0.229520753 12.33304024
lfoot  0.5431675911 -23.71055031 36.71066666
ltoes  -8.730316873 -18.06454556 -116.3457101
4
root  34.83566224 36.54992712 -14.46938552 9.011733055 -4.954702854 3.113879681
lowerback  -8.306569099 -0.6808563471 -0.4390760958
upperback  -3.833179951 -0.4545246363 -3.021460056
thorax  0.6713560224 -0.08314029872 -2.909329891
lowerneck  -7.583069801 -12.87170029 -9.81085968
upperneck  13.4052 -17.51059723 9.932359695
head  7.088294983 -8.148049355 3.0463624
lclavicle  0 -4.497500157e-015 -2.743230041e-014
lhumerus  -48.24689865 29.33160019 64.49990082
lradius  0.006001632661 -6.507048965e-006 30.14369965
lwrist  4.824992743e-007 -3.790274832e-007 -28.26609802
lhand  -4.412474444e-031 -36.8451004 -10.40429974
lfingers  90 7.125020027 -90
lthumb  94.73315096 -25.24698361 100.9857853
rclavicle  0 -4.497500157e-015 -2.743230041e-014
rhumerus  -59.34579849 -42.8064003 -44.97800064
rradius  -5.16745672e-007 2.214343908e-008 34.71960068
rwrist  -2.867388866e-005 0.1128110886 -140.6360016
rhand  -1.767773088e-031 -2.865639925 -7.639100075
rfingers  -90 -7.125020027 -90
rthumb  -86.60290143 -8.007207182 -66.91926836
rfemur  -11.3495636 16.05798149 13.00498772
rtibia  -0.3145408928 -0.7736330628 18.93244171
rfoot  1.171958685 -21.42728806 -35.56742096
rtoes  4.116659007 19.5887426 -102.1160506
lfemur  -6.406384945 -15.97380543 -20.68161583
ltibia  3.803601503 -0.2460623682 12.24086571
lfoot  0.5190874338 -23.62340546 36.68586731
ltoes  -8.709355485 -18.07439955 -116.2781298
